<svg id="Layer_2" xmlns="http://www.w3.org/2000/svg" viewBox="0 0 224 224"><style>.st0{fill:#fff}</style><path class="st0" d="M212.2 159.9c-1.1 0-2-.9-2-1.9-1.6-55.2-44.9-98.4-98.5-98.4S14.9 102.8 13.2 158c0 1.1-.9 2-2.1 1.9-1.1 0-2-1-1.9-2.1.8-27.5 11.8-53.2 31-72.4 19.2-19.3 44.6-29.9 71.4-29.9s52.2 10.6 71.5 29.9c19.2 19.2 30.2 44.9 31 72.4.1 1.1-.8 2.1-1.9 2.1z"/><path class="st0" d="M202.9 187H24.5c-2.3 0-4.5-1-6-2.8L1.2 164c-1.3-1.5-1.5-3.5-.7-5.2.8-1.8 2.5-2.9 4.5-2.9h214.1c1.8 0 3.5 1 4.4 2.6.8 1.6.7 3.5-.3 5l-13.7 20c-1.5 2.2-3.9 3.5-6.6 3.5zM5 159.9c-.6 0-.8.4-.9.5-.1.2-.2.6.1 1l17.3 20.3c.7.9 1.8 1.4 3 1.4H203c1.3 0 2.5-.6 3.2-1.7l13.7-20c.3-.4.1-.7.1-.9-.1-.2-.3-.5-.8-.5H5zM128.4 61h-.3c-1.1-.1-1.9-1.1-1.7-2.2.1-.7.1-1.4.1-2.1 0-8.6-6.6-15.6-14.8-15.6-8.2 0-14.8 7-14.8 15.6 0 .7 0 1.4.1 2.1.1 1.1-.6 2.1-1.7 2.2-1.1.1-2.1-.6-2.2-1.7-.1-.9-.2-1.7-.2-2.6 0-10.8 8.4-19.6 18.8-19.6s18.8 8.8 18.8 19.6c0 .9-.1 1.8-.2 2.6-.1.9-.9 1.7-1.9 1.7zM32.6 144.1h-.2c-1.1-.1-1.9-1-1.8-2.1.1-1.5 3.2-36.7 40.5-59.3.9-.6 2.2-.3 2.7.7.6.9.3 2.2-.7 2.7-35.5 21.5-38.5 55.9-38.6 56.2.1 1-.8 1.8-1.9 1.8zM90.9 78.4c-.9 0-1.7-.6-1.9-1.4-.3-1.1.3-2.2 1.3-2.5.5-.1 11.4-3.3 23.4-2.6 1.1.1 1.9 1 1.9 2.1s-1 1.9-2.1 1.9c-11.3-.7-21.9 2.4-22 2.4-.2.1-.4.1-.6.1z"/></svg>