<svg id="Layer_2" xmlns="http://www.w3.org/2000/svg" viewBox="0 0 170 176"><style>.st0{fill:#fff}</style><path class="st0" d="M96.7 176h-91c-3.2 0-5.7-2.6-5.7-5.8V5.8C0 2.6 2.6 0 5.7 0h116.8c3.2 0 5.7 2.6 5.7 5.8v23.4c0 1.1-.9 2-2 2s-2-.9-2-2V5.8c0-1-.8-1.8-1.7-1.8H5.7C4.8 4 4 4.8 4 5.8v164.5c0 1 .8 1.8 1.7 1.8h90.9c15.3 0 27.7-12.5 27.7-27.8v-62c0-1.1.9-2 2-2s2 .9 2 2v61.9c0 17.6-14.2 31.8-31.6 31.8z"/><path class="st0" d="M94.8 118.8c-.7 0-1.5-.2-2.4-.6-.2-.1-.4-.2-.5-.3L68.1 96.2c-.4-.4-.7-.9-.7-1.5 0-.9.1-1.8 1.2-3L135 16.3c.7-.8 1.7-1.3 2.7-1.4 1.1-.1 2.1.3 2.9 1l23.2 20.3c1.7 1.4 1.8 4 .4 5.6l-66.4 75.5c-.9 1-1.8 1.5-3 1.5zm-.5-4.1c.2.1.3.1.3.1l.1-.1 66.4-75.5L138 18.9 71.8 94.2l22.5 20.5z"/><path class="st0" d="M161.2 37.5c-1 0-1.9-.3-2.6-1l-18.2-15.9c-1.7-1.4-1.8-4-.4-5.6l4.8-5.5c.7-.8 1.7-1.3 2.7-1.4 1.1-.1 2.1.3 2.9 1L168.6 25c1.7 1.4 1.8 4 .4 5.6l-4.8 5.5c-.7.8-1.7 1.3-2.7 1.4h-.3zm-13.4-25.4l-4.8 5.5 18.2 15.9L166 28l-18.2-15.9zM66.8 129.2c-1.3 0-2.6-.5-3.6-1.3-1.4-1.3-2-3.1-1.7-5.2v-.1L67.6 95c.2-.7.7-1.3 1.3-1.5.7-.2 1.4-.1 1.9.4l24.7 21.9c.5.5.8 1.2.6 1.9s-.6 1.3-1.3 1.5L68.5 129c-.1 0-.1 0-.2.1-.4 0-1 .1-1.5.1zm-1.4-5.8c-.1.6.1 1.2.4 1.5.3.3.9.4 1.5.2l23.1-8.6-19.6-17.4-5.4 24.3z"/><path class="st0" d="M88.9 87.6c-.5 0-.9-.2-1.3-.5-.8-.7-.9-2-.2-2.8l56-63.5c.7-.8 2-.9 2.8-.2.8.7.9 2 .2 2.8l-56 63.5c-.4.5-.9.7-1.5.7zM89.4 99.7c-.5 0-.9-.2-1.3-.5-.8-.7-.9-2-.2-2.8l61.8-70.2c.7-.8 2-.9 2.8-.2.8.7.9 2 .2 2.8L90.9 99c-.4.4-1 .7-1.5.7zM102.3 97.3c-.5 0-.9-.2-1.3-.5-.8-.7-.9-2-.2-2.8l55.1-62.5c.7-.8 2-.9 2.8-.2.8.7.9 2 .2 2.8l-55.1 62.5c-.4.5-.9.7-1.5.7z"/></svg>