<svg id="Layer_2" xmlns="http://www.w3.org/2000/svg" viewBox="0 0 156 156"><style>.st0{fill:#fff}</style><path class="st0" d="M78 156c-43 0-78-35-78-78S35 0 78 0s78 35 78 78-35 78-78 78zM78 4C37.2 4 4 37.2 4 78s33.2 74 74 74 74-33.2 74-74S118.8 4 78 4z"/><path class="st0" d="M78 87.2c-5.4 0-9.9-4.4-9.9-9.9s4.4-9.9 9.9-9.9 9.9 4.4 9.9 9.9-4.4 9.9-9.9 9.9zm0-15.7c-3.2 0-5.8 2.6-5.8 5.8 0 3.2 2.6 5.8 5.8 5.8 3.2 0 5.8-2.6 5.8-5.8.1-3.2-2.5-5.8-5.8-5.8zM77.8 27.2c-1.1 0-2-.9-2-2v-7.8c0-1.1.9-2 2-2s2 .9 2 2v7.8c0 1.1-.9 2-2 2zM41 42.6c-.5 0-1-.2-1.4-.6L34 36.5c-.8-.8-.8-2.1 0-2.8.8-.8 2.1-.8 2.8 0l5.5 5.5c.8.8.8 2.1 0 2.8-.3.4-.8.6-1.3.6zM25.9 79.6h-7.8c-1.1 0-2-.9-2-2s.9-2 2-2h7.8c1.1 0 2 .9 2 2s-.9 2-2 2zM35.8 121.9c-.5 0-1-.2-1.4-.6-.8-.8-.8-2.1 0-2.8l5.5-5.5c.8-.8 2.1-.8 2.8 0 .8.8.8 2.1 0 2.8l-5.5 5.5c-.4.4-.9.6-1.4.6zM78.3 139.3c-1.1 0-2-.9-2-2v-7.8c0-1.1.9-2 2-2s2 .9 2 2v7.8c0 1.1-.9 2-2 2zM120.6 121.6c-.5 0-1-.2-1.4-.6l-5.5-5.5c-.8-.8-.8-2.1 0-2.8.8-.8 2.1-.8 2.8 0l5.5 5.5c.8.8.8 2.1 0 2.8-.3.4-.9.6-1.4.6zM138 79.1h-7.8c-1.1 0-2-.9-2-2s.9-2 2-2h7.8c1.1 0 2 .9 2 2s-.9 2-2 2zM114.7 42.3c-.5 0-1-.2-1.4-.6-.8-.8-.8-2.1 0-2.8l5.5-5.5c.8-.8 2.1-.8 2.8 0 .8.8.8 2.1 0 2.8l-5.5 5.5c-.3.4-.8.6-1.4.6z"/><path class="st0" d="M78 71.5c-1.1 0-2-.9-2-2V38.2c0-1.1.9-2 2-2s2 .9 2 2v31.2c.1 1.2-.8 2.1-2 2.1zM62.5 101.5c-.4 0-.9-.1-1.2-.4-.9-.7-1-1.9-.3-2.8L72.8 83c.7-.9 1.9-1 2.8-.3.9.7 1 1.9.3 2.8L64 100.7c-.3.5-.9.8-1.5.8z"/></svg>