<svg id="Layer_1" xmlns="http://www.w3.org/2000/svg" viewBox="-397 228 164 106"><style>.st0{fill:#272929}.st1{fill:#6b9e3d}</style><path class="st0" d="M-360.2 251.5c.5-.7.9-1.1 1.2-1.6 2-2.8 3-4.6 2.7-5.3l-.1-.2c-.1-.1-.3-.2-.6-.3s-.7-.1-1.1 0H-363.7c-.1 0-.2 0-.3.1h-.1l-.1.1c-.1 0-.1.1-.2.2s-.1.2-.2.3c-.6 1.5-1.2 2.8-2 4.1-.5.7-.8 1.4-1.2 2-.4.6-.7.9-.9 1.2l-.7.7c-.2.2-.4.2-.5.2s-.2-.1-.3-.1c-.2-.1-.3-.3-.4-.5s-.2-.5-.2-.7-.1-.6-.1-.7v-.8-.7-1.5-1.3-1c0-.3 0-.7-.1-.8 0-.2-.1-.4-.2-.6-.1-.2-.2-.4-.4-.5s-.4-.2-.7-.3c-.7-.2-1.5-.2-2.4-.3-2.2 0-3.7.1-4.4.5-.3.1-.5.3-.7.6s-.3.4-.1.5c.7.1 1.2.4 1.6.7l.1.2c.1.2.2.5.3.8s.1.8.2 1.3c.1.8.1 1.7 0 2.2-.1.7-.1 1.1-.2 1.5s-.1.7-.3.8l-.2.4c0 .1-.1.1-.1.1-.2.1-.3.1-.5.1s-.4-.1-.7-.3c-.3-.2-.5-.4-.7-.7-.3-.3-.6-.7-.8-1.2-.4-.6-.7-1.1-1-1.9l-.4-.3c-.2-.4-.5-.8-.7-1.5-.3-.7-.6-1.3-.8-1.9-.1-.3-.3-.5-.5-.6l-.1-.1c-.1-.1-.2-.1-.3-.2-.1-.1-.3-.1-.4-.1h-4.9c-.5 0-.8.1-1 .4l-.1.1c0 .1-.1.2-.1.3s0 .3.1.5c.7 1.7 1.5 3.3 2.3 4.9.8 1.6 1.6 2.9 2.2 3.8.7.9 1.3 1.9 2 2.7.7.8 1.1 1.4 1.3 1.7.2.3.4.5.5.6l.5.5c.3.3.7.7 1.3 1 .6.4 1.2.8 1.9 1.2.7.4 1.5.7 2.4.9.9.3 1.8.4 2.6.3h2c.5 0 .7-.2.9-.4l.1-.1c.1-.1.1-.2.1-.4s.1-.3.1-.5c0-.6 0-1 .1-1.4s.2-.7.3-.9c.1-.2.3-.4.4-.6.2-.2.3-.2.3-.3.1 0 .1-.1.2-.1.3-.1.7 0 1 .3.4.3.7.7 1.1 1 .4.4.7.9 1.2 1.4.5.6.9.9 1.3 1.1l.4.2c.3.2.6.3.9.4.4.1.7.2 1 .1l4.6-.1c.5 0 .8-.1 1.1-.2.3-.2.4-.3.5-.5s.1-.4 0-.7c0-.2-.1-.4-.1-.5s-.1-.2-.1-.2c-.7-1.1-1.8-2.4-3.4-4-.7-.7-1.3-1.2-1.5-1.5-.4-.5-.5-.9-.3-1.5.5-.1 1.1-.9 2-2.1z"/><path class="st0" d="M-373 231c11.6 0 21 9.4 21 21s-9.4 21-21 21-21-9.4-21-21 9.5-21 21-21m0-3c-13.3 0-24 10.7-24 24s10.7 24 24 24 24-10.7 24-24-10.7-24-24-24z"/><path class="st1" d="M-360.2 309.5c.5-.7.9-1.1 1.2-1.6 2-2.8 3-4.6 2.7-5.3l-.1-.2c-.1-.1-.3-.2-.6-.3-.3-.1-.7-.1-1.1 0H-363.7c-.1 0-.2 0-.3.1h-.1l-.1.1c-.1 0-.1.1-.2.2s-.1.2-.2.3c-.6 1.5-1.2 2.8-2 4.1-.5.7-.8 1.4-1.2 2-.4.6-.7.9-.9 1.2l-.7.7c-.2.2-.4.2-.5.2s-.2-.1-.3-.1c-.2-.1-.3-.3-.4-.5s-.2-.5-.2-.7-.1-.6-.1-.7v-.8-.7-1.5-1.3-1c0-.4 0-.7-.1-.8 0-.2-.1-.4-.2-.6s-.2-.4-.4-.5c-.2-.1-.4-.2-.7-.3-.7-.2-1.5-.2-2.4-.3-2.2 0-3.7.1-4.4.5-.3.1-.5.3-.7.6-.2.3-.3.4-.1.5.7.1 1.2.4 1.6.7l.1.2c.1.2.2.5.3.8.1.4.1.8.2 1.3.1.8.1 1.7 0 2.2-.1.7-.1 1.1-.2 1.5s-.1.7-.3.8l-.2.4c0 .1-.1.1-.1.1-.2.1-.3.1-.5.1s-.4-.1-.7-.3c-.3-.2-.5-.4-.7-.7-.3-.3-.6-.7-.8-1.2-.4-.6-.7-1.1-1-1.9l-.4-.3c-.2-.4-.5-.8-.7-1.5-.3-.7-.6-1.3-.8-1.9-.1-.3-.3-.5-.5-.6l-.1-.1c-.1-.1-.2-.1-.3-.2-.1-.1-.3-.1-.4-.1h-4.9c-.5 0-.8.1-1 .4l-.1.1c0 .1-.1.2-.1.3 0 .1 0 .3.1.5.7 1.7 1.5 3.3 2.3 4.9s1.6 2.9 2.2 3.8c.7.9 1.3 1.9 2 2.7s1.1 1.4 1.3 1.7c.2.3.4.5.5.6l.5.5c.3.3.7.7 1.3 1 .6.4 1.2.8 1.9 1.2.7.4 1.5.7 2.4.9.9.3 1.8.4 2.6.3h2c.5 0 .7-.2.9-.4l.1-.1c.1-.1.1-.2.1-.4s.1-.3.1-.5c0-.6 0-1 .1-1.4s.2-.7.3-.9c.1-.2.3-.4.4-.6.2-.2.3-.2.3-.3.1 0 .1-.1.2-.1.3-.1.7 0 1 .3.4.3.7.7 1.1 1 .4.4.7.9 1.2 1.4.5.6.9.9 1.3 1.1l.4.2c.3.2.6.3.9.4.4.1.7.2 1 .1l4.6-.1c.5 0 .8-.1 1.1-.2.3-.2.4-.3.5-.5s.1-.4 0-.7c0-.2-.1-.4-.1-.5s-.1-.2-.1-.2c-.7-1.1-1.8-2.4-3.4-4-.7-.7-1.3-1.2-1.5-1.5-.4-.5-.5-.9-.3-1.5.5-.1 1.1-.9 2-2.1z"/><path class="st1" d="M-373 289c11.6 0 21 9.4 21 21s-9.4 21-21 21-21-9.4-21-21 9.5-21 21-21m0-3c-13.3 0-24 10.7-24 24s10.7 24 24 24 24-10.7 24-24-10.7-24-24-24z"/><path class="st0" d="M-315 231c11.6 0 21 9.4 21 21s-9.4 21-21 21-21-9.4-21-21 9.5-21 21-21m0-3c-13.3 0-24 10.7-24 24s10.7 24 24 24 24-10.7 24-24-10.7-24-24-24z"/><path class="st0" d="M-305.4 238.8h-19.1c-2 0-3.6 1.6-3.6 3.6v19.2c0 2 1.6 3.6 3.6 3.6h19.2c2 0 3.6-1.6 3.6-3.6v-19.1c-.1-2.1-1.7-3.7-3.7-3.7zm-9.6 19.7c-3.3 0-5.9-2.6-5.9-5.9 0-3.3 2.6-5.9 5.9-5.9s5.9 2.6 5.9 5.9c0 3.2-2.6 5.9-5.9 5.9zm10.9-10.3h-5.4c-1.4-1.6-3.4-2.6-5.6-2.6s-4.3 1-5.7 2.6h-5.2v-5.1c0-1.3 1.1-2.4 2.4-2.4h17.2c1.3 0 2.4 1.1 2.4 2.4l-.1 5.1z"/><path class="st0" d="M-315 248.7c-2.1 0-3.8 1.7-3.8 3.8s1.7 3.8 3.8 3.8 3.8-1.7 3.8-3.8c0-2-1.7-3.8-3.8-3.8zM-307 242.3h-2.3c-.5 0-.9.5-.9.9v2.3c0 .5.5.9.9.9h2.3c.5 0 .9-.5.9-.9v-2.3c.1-.6-.3-.9-.9-.9z"/><g><path class="st1" d="M-315 289c11.6 0 21 9.4 21 21s-9.4 21-21 21-21-9.4-21-21 9.5-21 21-21m0-3c-13.3 0-24 10.7-24 24s10.7 24 24 24 24-10.7 24-24-10.7-24-24-24z"/><path class="st1" d="M-305.4 296.8h-19.1c-2 0-3.6 1.6-3.6 3.6v19.2c0 2 1.6 3.6 3.6 3.6h19.2c2 0 3.6-1.6 3.6-3.6v-19.1c-.1-2.1-1.7-3.7-3.7-3.7zm-9.6 19.7c-3.3 0-5.9-2.6-5.9-5.9 0-3.3 2.6-5.9 5.9-5.9s5.9 2.6 5.9 5.9c0 3.2-2.6 5.9-5.9 5.9zm10.9-10.3h-5.4c-1.4-1.6-3.4-2.6-5.6-2.6s-4.3 1-5.7 2.6h-5.2v-5.1c0-1.3 1.1-2.4 2.4-2.4h17.2c1.3 0 2.4 1.1 2.4 2.4l-.1 5.1z"/><path class="st1" d="M-315 306.7c-2.1 0-3.8 1.7-3.8 3.8s1.7 3.8 3.8 3.8 3.8-1.7 3.8-3.8c0-2-1.7-3.8-3.8-3.8zM-307 300.3h-2.3c-.5 0-.9.5-.9.9v2.3c0 .5.5.9.9.9h2.3c.5 0 .9-.5.9-.9v-2.3c.1-.6-.3-.9-.9-.9z"/></g><g><path class="st0" d="M-257 231c11.6 0 21 9.4 21 21s-9.4 21-21 21-21-9.4-21-21 9.5-21 21-21m0-3c-13.3 0-24 10.7-24 24s10.7 24 24 24 24-10.7 24-24-10.7-24-24-24z"/><path class="st0" d="M-249.7 237.6h-3.7c-4.2 0-6.9 2.8-6.9 7.1v3.3h-3.7c-.3 0-.6.2-.6.6v4.7c0 .3.2.6.6.6h3.7v11.9c0 .3.2.6.6.6h4.9c.3 0 .6-.2.6-.6v-11.9h4.4c.3 0 .6-.2.6-.6v-4.7c0-.2-.1-.3-.2-.4-.1-.1-.2-.2-.4-.2h-4.4v-2.8c0-1.3.3-2 2-2h2.5c.3 0 .6-.2.6-.6v-4.4c0-.3-.3-.6-.6-.6z"/></g><g><path class="st1" d="M-257 289c11.6 0 21 9.4 21 21s-9.4 21-21 21-21-9.4-21-21 9.5-21 21-21m0-3c-13.3 0-24 10.7-24 24s10.7 24 24 24 24-10.7 24-24-10.7-24-24-24z"/><path class="st1" d="M-249.7 295.6h-3.7c-4.2 0-6.9 2.8-6.9 7.1v3.3h-3.7c-.3 0-.6.2-.6.6v4.7c0 .3.2.6.6.6h3.7v11.9c0 .3.2.6.6.6h4.9c.3 0 .6-.2.6-.6v-11.9h4.4c.3 0 .6-.2.6-.6v-4.7c0-.2-.1-.3-.2-.4s-.2-.2-.4-.2h-4.4v-2.8c0-1.3.3-2 2-2h2.5c.3 0 .6-.2.6-.6v-4.4c0-.3-.3-.6-.6-.6z"/></g></svg>