<svg id="Layer_1" xmlns="http://www.w3.org/2000/svg" viewBox="0 0 122 54"><style>.st0{fill:#65b22e}.st1{fill:#100c08}</style><path class="st0" d="M63.9 4.3c2.2 2.1 2.4 5.6.3 7.8s-5.6 2.4-7.8.3-3.6-10.9-3.6-10.9 8.8.7 11.1 2.8z"/><path class="st1" d="M60.1 15.4c-1.7 0-3.4-.6-4.8-1.9-2.5-2.3-3.8-10.2-4-11.8-.1-.5.1-.9.4-1.2.3-.4.8-.5 1.2-.5 1.6.1 9.5.8 12 3.2 1.4 1.3 2.2 3 2.2 4.9.1 1.9-.6 3.7-1.9 5.1-1.3 1.4-3.2 2.2-5.1 2.2zM54.6 3.2c.6 3.3 1.7 7.1 2.8 8.1 1.6 1.5 4.2 1.4 5.7-.2.7-.8 1.1-1.8 1.1-2.9 0-1.1-.5-2.1-1.3-2.8-1.1-1-5-1.8-8.3-2.2z"/><path class="st0" d="M64.4 33.9v-1.5c0-1.4 1.1-2.5 2.5-2.5h16.4c-1-17.3-20.9-14.4-22.3-6.2-1.5-8.1-21.3-11-22.3 6.2v.2c-.1 2.2.1 4.4.7 6.4 2.5 9.3 11.5 16.1 21.6 16.1 10.1 0 19.1-6.8 21.6-16.1H67c-1.4-.1-2.6-1.2-2.6-2.6z"/><path class="st1" d="M61 54c-10.7 0-20.4-7.2-23.1-17.2-.6-2.2-.9-4.5-.7-6.9v-.2c.6-9.9 6.9-13.7 12.7-14.1 4.6-.3 8.9 1.6 11.2 4.5 2.2-2.9 6.6-4.7 11.2-4.5 5.7.3 12.1 4.2 12.7 14.1 0 .4-.1.8-.4 1.1-.3.3-.7.5-1.1.5H67c-.6 0-1 .5-1 1v1.5c0 .6.5 1 1 1h15.7c.5 0 .9.2 1.2.6.3.4.4.9.3 1.3C81.4 46.8 71.7 54 61 54zM50.8 18.7h-.7c-5.8.3-9.5 4.6-9.9 11.3v.2c-.1 2 .1 4 .6 5.9 2.4 8.7 10.9 15 20.2 15 8.6 0 16.6-5.4 19.6-13.1H67c-2.2 0-4-1.8-4-4v-1.5c0-2.2 1.8-4 4-4h14.7c-.9-5.8-4.4-9.4-9.7-9.7-4.6-.3-8.9 2.1-9.5 5.2-.1.7-.7 1.2-1.5 1.2s-1.3-.5-1.5-1.2c-.5-3-4.4-5.3-8.7-5.3zM8.6 37.9H4c-2.2 0-4-1.8-4-4v-1.5c0-2.2 1.8-4 4-4h4.6c.8 0 1.5.7 1.5 1.5v6.6c0 .8-.7 1.4-1.5 1.4zM4 31.4c-.6 0-1 .5-1 1v1.5c0 .6.5 1 1 1h3.1v-3.6H4z"/><path class="st1" d="M39.4 37.9H29.1c-.8 0-1.5-.7-1.5-1.5v-6.6c0-.8.7-1.5 1.5-1.5h9.6c.4 0 .8.2 1.1.5.3.3.4.7.4 1.1v.2c-.1 2 .1 4 .6 5.9.1.5 0 .9-.3 1.3-.2.4-.7.6-1.1.6zm-8.8-3h6.9c-.2-1.2-.3-2.4-.3-3.6h-6.6v3.6zM18.9 37.9c-.8 0-1.5-.7-1.5-1.5v-6.6c0-.8.7-1.5 1.5-1.5s1.5.7 1.5 1.5v6.6c-.1.9-.7 1.5-1.5 1.5z"/><path class="st1" d="M26.6 54h-5.2c-2.2 0-4-1.8-4-4V16.4c0-2.2 1.8-4 4-4h5.2c2.2 0 4 1.8 4 4V50c0 2.2-1.8 4-4 4zm-5.2-38.7c-.6 0-1 .5-1 1V50c0 .6.5 1 1 1h5.2c.6 0 1-.5 1-1V16.4c0-.6-.5-1-1-1h-5.2z"/><path class="st1" d="M16.3 46.7h-5.2c-2.2 0-4-1.8-4-4V23.6c0-2.2 1.8-4 4-4h5.2c2.2 0 4 1.8 4 4v19.1c0 2.2-1.8 4-4 4zm-5.2-24.1c-.6 0-1 .5-1 1v19.1c0 .6.5 1 1 1h5.2c.6 0 1-.5 1-1V23.6c0-.6-.5-1-1-1h-5.2zM92.9 37.9H67c-2.2 0-4-1.8-4-4v-1.5c0-2.2 1.8-4 4-4h25.9c.8 0 1.5.7 1.5 1.5v6.6c0 .8-.7 1.4-1.5 1.4zM67 31.4c-.6 0-1 .5-1 1v1.5c0 .6.5 1 1 1h24.5v-3.6H67z"/><path class="st1" d="M100.6 54h-5.2c-2.2 0-4-1.8-4-4V16.4c0-2.2 1.8-4 4-4h5.2c2.2 0 4 1.8 4 4V50c0 2.2-1.8 4-4 4zm-5.2-38.7c-.6 0-1 .5-1 1V50c0 .6.5 1 1 1h5.2c.6 0 1-.5 1-1V16.4c0-.6-.5-1-1-1h-5.2z"/><g><path class="st1" d="M118 37.9h-4.6c-.8 0-1.5-.7-1.5-1.5v-6.6c0-.8.7-1.5 1.5-1.5h4.6c2.2 0 4 1.8 4 4v1.5c0 2.3-1.8 4.1-4 4.1zm-3.1-3h3.1c.6 0 1-.5 1-1v-1.5c0-.6-.5-1-1-1h-3.1v3.5z"/></g><g><path class="st1" d="M110.9 46.7h-5.2c-2.2 0-4-1.8-4-4V23.6c0-2.2 1.8-4 4-4h5.2c2.2 0 4 1.8 4 4v19.1c0 2.2-1.8 4-4 4zm-5.2-24.1c-.6 0-1 .5-1 1v19.1c0 .6.5 1 1 1h5.2c.6 0 1-.5 1-1V23.6c0-.6-.5-1-1-1h-5.2z"/></g></svg>